<svg id="visual" viewBox="0 0 900 600" width="900" height="600" xmlns="http://www.w3.org/2000/svg" xmlns:xlink="http://www.w3.org/1999/xlink" version="1.1"><rect x="0" y="0" width="900" height="600" fill="#002233"></rect><path d="M0 191L21.5 174.7C43 158.3 86 125.7 128.8 108C171.7 90.3 214.3 87.7 257.2 94C300 100.3 343 115.7 385.8 136.5C428.7 157.3 471.3 183.7 514.2 186.3C557 189 600 168 642.8 146.5C685.7 125 728.3 103 771.2 95.7C814 88.3 857 95.7 878.5 99.3L900 103L900 0L878.5 0C857 0 814 0 771.2 0C728.3 0 685.7 0 642.8 0C600 0 557 0 514.2 0C471.3 0 428.7 0 385.8 0C343 0 300 0 257.2 0C214.3 0 171.7 0 128.8 0C86 0 43 0 21.5 0L0 0Z" fill="#0066FF" stroke-linecap="round" stroke-linejoin="miter"></path></svg>